HIERARCHY
ROOT mixamorig:Hips
{
	OFFSET 0.000000 201.639420 0.000000
	CHANNELS 6 Xposition Yposition Zposition Xrotation Yrotation Zrotation
	JOINT mixamorig:Spine
	{
		OFFSET 0.006200 19.524994 -2.481800
		CHANNELS 3 Xrotation Yrotation Zrotation
		JOINT mixamorig:Spine1
		{
			OFFSET -0.000900 22.835007 -2.825400
			CHANNELS 3 Xrotation Yrotation Zrotation
			JOINT mixamorig:Spine2
			{
				OFFSET -0.020600 26.552490 -3.193300
				CHANNELS 3 Xrotation Yrotation Zrotation
				JOINT mixamorig:Neck
				{
					OFFSET -0.060000 30.701813 1.352200
					CHANNELS 3 Xrotation Yrotation Zrotation
					JOINT mixamorig:Head
					{
						OFFSET -0.087200 22.547607 3.670900
						CHANNELS 3 Xrotation Yrotation Zrotation
						JOINT mixamorig:HeadTop_End
						{
							OFFSET -0.830600 40.355194 7.893500
							CHANNELS 3 Xrotation Yrotation Zrotation
							End Site
							{
								OFFSET 0.000000 30.592346 0.000000
							}
						}
						JOINT mixamorig:RightEye
						{
							OFFSET -6.302100 18.118591 16.197100
							CHANNELS 3 Xrotation Yrotation Zrotation
							End Site
							{
								OFFSET 0.000000 30.592346 0.000000
							}
						}
						JOINT mixamorig:LeftEye
						{
							OFFSET 6.741500 18.382690 16.401899
							CHANNELS 3 Xrotation Yrotation Zrotation
							End Site
							{
								OFFSET 0.000000 30.592346 0.000000
							}
						}
					}
				}
				JOINT mixamorig:LeftShoulder
				{
					OFFSET 11.924900 18.230499 1.425400
					CHANNELS 3 Xrotation Yrotation Zrotation
					JOINT mixamorig:LeftArm
					{
						OFFSET 25.435989 -0.697632 -5.229300
						CHANNELS 3 Xrotation Yrotation Zrotation
						JOINT mixamorig:LeftForeArm
						{
							OFFSET 54.684776 0.000000 0.000000
							CHANNELS 3 Xrotation Yrotation Zrotation
							JOINT mixamorig:LeftHand
							{
								OFFSET 55.098175 0.000000 0.000000
								CHANNELS 3 Xrotation Yrotation Zrotation
								JOINT mixamorig:LeftHandMiddle1
								{
									OFFSET 23.369751 0.000000 0.000000
									CHANNELS 3 Xrotation Yrotation Zrotation
									JOINT mixamorig:LeftHandMiddle2
									{
										OFFSET 6.378677 0.000000 0.000000
										CHANNELS 3 Xrotation Yrotation Zrotation
										JOINT mixamorig:LeftHandMiddle3
										{
											OFFSET 6.148331 0.000000 0.000000
											CHANNELS 3 Xrotation Yrotation Zrotation
											JOINT mixamorig:LeftHandMiddle4
											{
												OFFSET 6.582504 0.000000 0.000000
												CHANNELS 3 Xrotation Yrotation Zrotation
												End Site
												{
													OFFSET -1.168900 6.395691 1.028606
												}
											}
										}
									}
								}
								JOINT mixamorig:LeftHandThumb1
								{
									OFFSET 7.235672 -3.848206 5.434273
									CHANNELS 3 Xrotation Yrotation Zrotation
									JOINT mixamorig:LeftHandThumb2
									{
										OFFSET 6.568451 -3.792297 3.792300
										CHANNELS 3 Xrotation Yrotation Zrotation
										JOINT mixamorig:LeftHandThumb3
										{
											OFFSET 6.063080 -3.500519 3.500518
											CHANNELS 3 Xrotation Yrotation Zrotation
											JOINT mixamorig:LeftHandThumb4
											{
												OFFSET 4.793182 -2.767334 2.767349
												CHANNELS 3 Xrotation Yrotation Zrotation
												End Site
												{
													OFFSET 0.101639 6.054260 1.275483
												}
											}
										}
									}
								}
								JOINT mixamorig:LeftHandIndex1
								{
									OFFSET 23.101074 -0.309540 4.992809
									CHANNELS 3 Xrotation Yrotation Zrotation
									JOINT mixamorig:LeftHandIndex2
									{
										OFFSET 6.226883 0.000000 0.000000
										CHANNELS 3 Xrotation Yrotation Zrotation
										JOINT mixamorig:LeftHandIndex3
										{
											OFFSET 6.094330 0.000000 0.000000
											CHANNELS 3 Xrotation Yrotation Zrotation
											JOINT mixamorig:LeftHandIndex4
											{
												OFFSET 5.482605 0.000000 0.000000
												CHANNELS 3 Xrotation Yrotation Zrotation
												End Site
												{
													OFFSET -1.427902 5.233032 0.797164
												}
											}
										}
									}
								}
								JOINT mixamorig:LeftHandRing1
								{
									OFFSET 22.299240 0.021149 -3.964172
									CHANNELS 3 Xrotation Yrotation Zrotation
									JOINT mixamorig:LeftHandRing2
									{
										OFFSET 6.321869 0.000000 0.000000
										CHANNELS 3 Xrotation Yrotation Zrotation
										JOINT mixamorig:LeftHandRing3
										{
											OFFSET 5.899796 0.000000 0.000000
											CHANNELS 3 Xrotation Yrotation Zrotation
											JOINT mixamorig:LeftHandRing4
											{
												OFFSET 6.517899 0.000000 0.000000
												CHANNELS 3 Xrotation Yrotation Zrotation
												End Site
												{
													OFFSET -1.637299 6.232208 0.980890
												}
											}
										}
									}
								}
								JOINT mixamorig:LeftHandPinky1
								{
									OFFSET 20.463791 -0.302338 -8.562233
									CHANNELS 3 Xrotation Yrotation Zrotation
									JOINT mixamorig:LeftHandPinky2
									{
										OFFSET 6.908646 0.000000 0.000000
										CHANNELS 3 Xrotation Yrotation Zrotation
										JOINT mixamorig:LeftHandPinky3
										{
											OFFSET 4.622849 0.000000 0.000000
											CHANNELS 3 Xrotation Yrotation Zrotation
											JOINT mixamorig:LeftHandPinky4
											{
												OFFSET 5.216080 0.000000 0.000000
												CHANNELS 3 Xrotation Yrotation Zrotation
												End Site
												{
													OFFSET -0.606308 5.116241 0.814926
												}
											}
										}
									}
								}
							}
						}
					}
				}
				JOINT mixamorig:RightShoulder
				{
					OFFSET -12.001300 18.284088 1.348900
					CHANNELS 3 Xrotation Yrotation Zrotation
					JOINT mixamorig:RightArm
					{
						OFFSET -25.308500 -0.751312 -5.164599
						CHANNELS 3 Xrotation Yrotation Zrotation
						JOINT mixamorig:RightForeArm
						{
							OFFSET -54.684429 0.000000 0.000000
							CHANNELS 3 Xrotation Yrotation Zrotation
							JOINT mixamorig:RightHand
							{
								OFFSET -55.150291 0.000000 0.000000
								CHANNELS 3 Xrotation Yrotation Zrotation
								JOINT mixamorig:RightHandMiddle1
								{
									OFFSET -23.317566 0.000000 0.000000
									CHANNELS 3 Xrotation Yrotation Zrotation
									JOINT mixamorig:RightHandMiddle2
									{
										OFFSET -6.378403 0.000000 0.000000
										CHANNELS 3 Xrotation Yrotation Zrotation
										JOINT mixamorig:RightHandMiddle3
										{
											OFFSET -6.148193 0.000000 0.000000
											CHANNELS 3 Xrotation Yrotation Zrotation
											JOINT mixamorig:RightHandMiddle4
											{
												OFFSET -6.583389 0.000000 0.000000
												CHANNELS 3 Xrotation Yrotation Zrotation
												End Site
												{
													OFFSET 1.171692 6.395905 1.029786
												}
											}
										}
									}
								}
								JOINT mixamorig:RightHandThumb1
								{
									OFFSET -7.190521 -3.860474 5.435846
									CHANNELS 3 Xrotation Yrotation Zrotation
									JOINT mixamorig:RightHandThumb2
									{
										OFFSET -6.567429 -3.791718 3.791708
										CHANNELS 3 Xrotation Yrotation Zrotation
										JOINT mixamorig:RightHandThumb3
										{
											OFFSET -6.062469 -3.500153 3.500166
											CHANNELS 3 Xrotation Yrotation Zrotation
											JOINT mixamorig:RightHandThumb4
											{
												OFFSET -4.792618 -2.767029 2.767022
												CHANNELS 3 Xrotation Yrotation Zrotation
												End Site
												{
													OFFSET -0.100327 6.053253 1.276754
												}
											}
										}
									}
								}
								JOINT mixamorig:RightHandIndex1
								{
									OFFSET -23.048981 -0.310791 4.992554
									CHANNELS 3 Xrotation Yrotation Zrotation
									JOINT mixamorig:RightHandIndex2
									{
										OFFSET -6.227539 0.000000 0.000000
										CHANNELS 3 Xrotation Yrotation Zrotation
										JOINT mixamorig:RightHandIndex3
										{
											OFFSET -6.095047 0.000000 0.000000
											CHANNELS 3 Xrotation Yrotation Zrotation
											JOINT mixamorig:RightHandIndex4
											{
												OFFSET -5.484772 0.000000 0.000000
												CHANNELS 3 Xrotation Yrotation Zrotation
												End Site
												{
													OFFSET 1.420593 5.237305 0.797056
												}
											}
										}
									}
								}
								JOINT mixamorig:RightHandRing1
								{
									OFFSET -22.246323 0.020569 -3.963762
									CHANNELS 3 Xrotation Yrotation Zrotation
									JOINT mixamorig:RightHandRing2
									{
										OFFSET -6.322128 0.000000 0.000000
										CHANNELS 3 Xrotation Yrotation Zrotation
										JOINT mixamorig:RightHandRing3
										{
											OFFSET -5.900024 0.000000 0.000000
											CHANNELS 3 Xrotation Yrotation Zrotation
											JOINT mixamorig:RightHandRing4
											{
												OFFSET -6.518356 0.000000 0.000000
												CHANNELS 3 Xrotation Yrotation Zrotation
												End Site
												{
													OFFSET 1.636398 6.232697 0.982186
												}
											}
										}
									}
								}
								JOINT mixamorig:RightHandPinky1
								{
									OFFSET -20.411011 -0.303314 -8.561701
									CHANNELS 3 Xrotation Yrotation Zrotation
									JOINT mixamorig:RightHandPinky2
									{
										OFFSET -6.907349 0.000000 0.000000
										CHANNELS 3 Xrotation Yrotation Zrotation
										JOINT mixamorig:RightHandPinky3
										{
											OFFSET -4.623840 0.000000 0.000000
											CHANNELS 3 Xrotation Yrotation Zrotation
											JOINT mixamorig:RightHandPinky4
											{
												OFFSET -5.218353 0.000000 0.000000
												CHANNELS 3 Xrotation Yrotation Zrotation
												End Site
												{
													OFFSET 0.602097 5.118835 0.816273
												}
											}
										}
									}
								}
							}
						}
					}
				}
			}
		}
	}
	JOINT mixamorig:LeftUpLeg
	{
		OFFSET 18.168400 -13.561905 -0.039000
		CHANNELS 3 Xrotation Yrotation Zrotation
		JOINT mixamorig:LeftLeg
		{
			OFFSET 0.577358 -80.825211 -3.695000
			CHANNELS 3 Xrotation Yrotation Zrotation
			JOINT mixamorig:LeftFoot
			{
				OFFSET -0.577356 -83.370262 -6.520700
				CHANNELS 3 Xrotation Yrotation Zrotation
				JOINT mixamorig:LeftToeBase
				{
					OFFSET 0.750401 -20.798306 25.135401
					CHANNELS 3 Xrotation Yrotation Zrotation
					JOINT mixamorig:LeftToe_End
					{
						OFFSET -0.000500 0.001200 19.917799
						CHANNELS 3 Xrotation Yrotation Zrotation
						End Site
						{
							OFFSET 0.000000 19.917805 0.000000
						}
					}
				}
			}
		}
	}
	JOINT mixamorig:RightUpLeg
	{
		OFFSET -18.162500 -13.585098 -0.041000
		CHANNELS 3 Xrotation Yrotation Zrotation
		JOINT mixamorig:RightLeg
		{
			OFFSET -0.595024 -80.945297 -3.631900
			CHANNELS 3 Xrotation Yrotation Zrotation
			JOINT mixamorig:RightFoot
			{
				OFFSET 0.595024 -83.218193 -6.561200
				CHANNELS 3 Xrotation Yrotation Zrotation
				JOINT mixamorig:RightToeBase
				{
					OFFSET -0.753601 -20.807106 25.115000
					CHANNELS 3 Xrotation Yrotation Zrotation
					JOINT mixamorig:RightToe_End
					{
						OFFSET 0.000299 0.001700 19.918200
						CHANNELS 3 Xrotation Yrotation Zrotation
						End Site
						{
							OFFSET 0.000000 19.918203 0.000000
						}
					}
				}
			}
		}
	}
}
MOTION
Frames: 4
Frame Time: 0.033333
6.922414 172.374359 -0.129147 1.384942 -53.675363 4.166984 12.399336 3.006784 -3.346448 12.571427 1.666414 -4.299022 12.541000 1.667353 -4.402265 10.246833 5.839877 -3.853639 -13.295948 27.516664 0.342841 0.000001 -0.000001 0.000001 0.000001 -0.000001 0.000001 0.000001 -0.000001 0.000001 -1.161834 -4.767766 0.727782 -32.433406 -7.400369 -48.822472 -0.000055 -105.264895 -0.000063 2.811819 -11.309238 -3.053858 -0.461467 3.841578 -39.722683 6.450741 5.820342 -95.892864 2.182895 4.561566 -51.127733 0.000001 0.000001 0.000002 -6.141207 -11.690814 -6.761685 9.914073 42.595522 3.409877 -0.422810 8.108106 27.509113 0.000001 -0.000001 -0.000001 0.255308 3.378209 -45.814334 5.654086 5.847746 -88.067441 2.162141 4.544816 -50.866382 -0.000003 0.000001 -0.000002 0.469727 4.966836 -39.799437 8.181061 5.368622 -113.503004 3.200494 5.218110 -63.022982 -0.000001 0.000000 0.000001 -3.762431 9.063691 -45.253818 5.342531 5.828997 -85.005311 8.716854 5.103341 -119.369181 -0.000002 -0.000004 0.000001 9.590637 24.680663 1.061606 -51.088736 27.214698 60.277164 0.000042 111.502456 -0.000035 -14.840232 13.082041 -3.789231 -0.761627 -2.932898 39.031044 5.133889 -4.632767 95.881642 1.739736 -3.631688 51.181333 0.000000 -0.000001 0.000001 -7.341121 13.749660 7.412333 9.855771 -44.489089 -3.903279 -0.115791 -14.513073 -28.973857 0.000000 0.000001 -0.000001 -0.124380 -2.384780 45.108851 4.500565 -4.654515 88.071184 1.723224 -3.618376 50.920133 -0.000000 -0.000001 -0.000001 0.154751 -4.068819 39.122664 6.509735 -4.273605 113.462843 2.549579 -4.153902 63.067337 -0.000001 0.000003 0.000001 -4.198882 -8.025512 44.637766 4.252913 -4.639628 85.014832 6.935964 -4.062623 119.322312 -0.000002 0.000001 -0.000001 -39.825419 8.513574 18.901939 61.697802 2.592534 2.409773 -23.160249 -11.731275 -15.555266 -1.600167 -0.000002 -0.000000 -0.000000 0.000002 0.000000 -35.901824 -4.815094 -27.884818 59.086723 -4.438628 -5.375309 -20.375537 -3.999487 17.608798 -0.000393 0.000017 0.000382 0.000000 -0.000000 0.000000 
5.362769 173.010559 -0.285975 -1.267689 -52.418010 2.798419 11.757083 3.795248 -3.140425 11.530812 1.847913 -4.005692 11.500733 1.837155 -4.114480 10.052852 6.391433 -3.419590 -11.534891 27.124884 -0.057171 0.000002 0.000000 0.000001 0.000002 0.000000 0.000001 0.000002 0.000000 0.000001 -1.053430 -4.283559 0.675967 -34.933655 -6.268498 -48.597756 -0.000038 -108.963490 -0.000038 1.789578 -8.410539 -4.759540 -0.461472 3.841578 -39.722683 6.450734 5.820341 -95.892864 2.182895 4.561566 -51.127733 0.000003 -0.000001 0.000000 -6.141207 -11.690816 -6.761682 9.914084 42.595525 3.409877 -0.422812 8.108106 27.509118 -0.000002 -0.000001 -0.000001 0.255314 3.378206 -45.814334 5.654090 5.847745 -88.067441 2.162141 4.544812 -50.866376 -0.000004 -0.000002 0.000001 0.469725 4.966836 -39.799434 8.181056 5.368621 -113.503004 3.200494 5.218114 -63.022982 0.000000 -0.000000 0.000001 -3.762434 9.063690 -45.253814 5.342538 5.828996 -85.005311 8.716850 5.103356 -119.369181 -0.000003 0.000001 -0.000000 9.240793 24.298027 0.678531 -52.032029 27.796047 62.991611 0.000137 111.604068 -0.000156 -13.494381 12.609114 -2.293033 -0.761627 -2.932896 39.031044 5.133895 -4.632767 95.881649 1.739734 -3.631686 51.181329 -0.000001 -0.000000 -0.000000 -7.341120 13.749660 7.412336 9.855767 -44.489089 -3.903279 -0.115796 -14.513071 -28.973854 0.000001 0.000001 0.000001 -0.124380 -2.384778 45.108851 4.500570 -4.654511 88.071178 1.723223 -3.618376 50.920129 -0.000001 -0.000002 0.000000 0.154752 -4.068815 39.122661 6.509734 -4.273605 113.462843 2.549581 -4.153899 63.067337 0.000003 0.000005 -0.000001 -4.198882 -8.025506 44.637762 4.252915 -4.639632 85.014832 6.935962 -4.062620 119.322312 -0.000004 -0.000001 0.000000 -37.526518 9.549429 18.340991 60.304403 0.815330 2.905146 -22.746955 -11.594343 -15.237194 -1.598082 -0.000014 -0.000003 -0.000000 -0.000002 -0.000000 -33.122760 -5.314911 -28.133768 58.629845 -4.891634 -5.909609 -20.916426 -5.109949 18.008270 0.001553 0.000018 0.003432 -0.000000 0.000000 0.000000 
3.867028 173.472717 -0.632327 -3.360728 -51.205525 1.646708 11.168550 4.611672 -2.871864 10.495211 2.030224 -3.665833 10.464290 2.024492 -3.779094 9.959971 6.966763 -3.036585 -9.880586 26.490609 -0.437912 -0.000001 -0.000000 -0.000000 -0.000001 -0.000000 -0.000000 -0.000001 -0.000000 -0.000000 -0.945356 -3.730059 0.460958 -39.047386 -4.906063 -48.663165 0.000031 -111.921153 0.000042 -0.334220 -5.129584 -7.688811 -0.461464 3.841578 -39.722683 6.450730 5.820341 -95.892857 2.182892 4.561570 -51.127733 0.000001 -0.000000 -0.000001 -6.141206 -11.690817 -6.761682 9.914076 42.595522 3.409875 -0.422816 8.108108 27.509113 0.000000 -0.000000 0.000001 0.255311 3.378208 -45.814327 5.654087 5.847744 -88.067441 2.162142 4.544815 -50.866382 -0.000001 -0.000000 0.000002 0.469727 4.966836 -39.799434 8.181053 5.368620 -113.502998 3.200492 5.218115 -63.022975 0.000001 0.000000 0.000001 -3.762429 9.063693 -45.253814 5.342538 5.828996 -85.005311 8.716852 5.103349 -119.369181 0.000002 -0.000001 -0.000000 8.865466 23.902600 0.126168 -52.506205 27.866986 65.213157 0.000098 111.300378 -0.000106 -12.420253 12.520950 -1.140799 -0.761627 -2.932907 39.031048 5.133892 -4.632770 95.881649 1.739738 -3.631689 51.181326 0.000003 0.000001 -0.000000 -7.341120 13.749655 7.412335 9.855769 -44.489093 -3.903278 -0.115795 -14.513078 -28.973854 0.000001 -0.000001 0.000004 -0.124380 -2.384783 45.108854 4.500566 -4.654511 88.071178 1.723228 -3.618377 50.920129 0.000001 -0.000001 -0.000002 0.154753 -4.068823 39.122661 6.509732 -4.273600 113.462836 2.549581 -4.153904 63.067337 -0.000001 -0.000002 -0.000001 -4.198883 -8.025517 44.637766 4.252909 -4.639628 85.014839 6.935964 -4.062621 119.322312 0.000003 -0.000001 -0.000001 -35.635925 10.040330 17.931198 59.166220 -0.694146 3.369544 -22.370741 -11.349327 -15.142572 -1.593444 0.000026 0.000003 0.000000 -0.000000 0.000000 -30.845199 -6.032772 -28.179276 58.337902 -5.320330 -6.350163 -21.476145 -6.007795 18.239351 0.008276 0.000015 0.013750 0.000000 0.000001 -0.000000 
2.596437 173.783997 -0.940451 -4.888627 -50.100568 0.878777 10.607389 5.423396 -2.522245 9.447386 2.201636 -3.270385 9.413613 2.214806 -3.388968 9.793807 7.559479 -2.756578 -8.108029 25.597888 -0.847071 -0.000002 -0.000000 0.000001 -0.000002 -0.000000 0.000001 -0.000002 -0.000000 0.000001 -0.848612 -3.276456 0.188419 -43.779566 -3.435704 -49.023731 0.000028 -113.709276 -0.000001 -3.022040 -2.138971 -11.003476 -0.461467 3.841578 -39.722683 6.450736 5.820341 -95.892857 2.182893 4.561566 -51.127736 0.000001 0.000001 -0.000005 -6.141207 -11.690816 -6.761684 9.914067 42.595519 3.409872 -0.422812 8.108103 27.509113 0.000004 0.000002 0.000002 0.255310 3.378208 -45.814331 5.654086 5.847745 -88.067441 2.162141 4.544812 -50.866379 0.000000 -0.000000 -0.000003 0.469722 4.966838 -39.799437 8.181059 5.368621 -113.502998 3.200492 5.218116 -63.022982 -0.000000 -0.000001 0.000001 -3.762430 9.063689 -45.253814 5.342538 5.828997 -85.005311 8.716851 5.103345 -119.369181 -0.000004 -0.000001 -0.000001 8.438581 23.368145 -0.579418 -52.427982 27.550878 67.157657 0.000065 111.018550 -0.000084 -11.569213 12.483300 -0.573360 -0.761629 -2.932905 39.031048 5.133889 -4.632767 95.881642 1.739736 -3.631686 51.181329 0.000001 0.000001 -0.000002 -7.341121 13.749660 7.412338 9.855771 -44.489096 -3.903279 -0.115796 -14.513073 -28.973861 -0.000001 0.000001 0.000000 -0.124383 -2.384781 45.108851 4.500565 -4.654516 88.071184 1.723221 -3.618371 50.920126 0.000002 0.000005 0.000002 0.154751 -4.068816 39.122658 6.509732 -4.273602 113.462843 2.549581 -4.153895 63.067337 0.000001 0.000000 0.000000 -4.198883 -8.025510 44.637766 4.252914 -4.639630 85.014839 6.935965 -4.062623 119.322312 0.000000 -0.000000 0.000001 -34.046406 9.901763 17.345240 58.278459 -1.620926 3.632134 -22.094718 -11.005478 -15.219135 -1.584559 -0.000014 -0.000003 -0.000000 -0.000002 -0.000000 -29.172640 -6.873908 -28.333757 58.126126 -5.796058 -6.755159 -21.972879 -6.460238 18.467401 0.020073 -0.000028 0.031911 -0.000000 0.000000 0.000000 
